# xmcd
#
# Track frame offsets:
#	150
#	7440
#	14538
#	19965
#	31537
#	36925
#	46680
#	54045
#	66684
#	73548
#
# Disc length: 1024 seconds
#
# Revision: 1
# Processed by: cddbd v1.5.1PL0 Copyright (c) Steve Scherf et al.
# Submitted via: CDex 1.50Beta5
#
DISCID=8103fe0a
DTITLE=GORO GOLO - TIMES NEW ROMAN
DYEAR=2002
DGENRE=Rock
TTITLE0=theme #2
TTITLE1=Get it
TTITLE2=Do you wanna dance with me
TTITLE3=Stay with me
TTITLE4=short story
TTITLE5=over
TTITLE6=Jennie
TTITLE7=Boy’s
TTITLE8=lonely blues
TTITLE9=theme #1
EXTD=
EXTT0=
EXTT1=
EXTT2=
EXTT3=
EXTT4=
EXTT5=
EXTT6=
EXTT7=
EXTT8=
EXTT9=
PLAYORDER=
